<svg width="76" height="76" viewBox="0 0 76 76" fill="none" xmlns="http://www.w3.org/2000/svg">
<path d="M38 2C42.7276 2 47.4089 2.93117 51.7766 4.74034C56.1443 6.54951 60.1129 9.20125 63.4558 12.5442C66.7988 15.8871 69.4505 19.8557 71.2597 24.2234C73.0688 28.5911 74 33.2724 74 38C74 42.7276 73.0688 47.4089 71.2597 51.7766C69.4505 56.1443 66.7987 60.1129 63.4558 63.4559C60.1129 66.7988 56.1443 69.4505 51.7766 71.2597C47.4089 73.0688 42.7276 74 38 74C33.2724 74 28.5911 73.0688 24.2234 71.2597C19.8557 69.4505 15.8871 66.7987 12.5441 63.4558C9.20124 60.1129 6.5495 56.1443 4.74033 51.7766C2.93116 47.4089 2 42.7276 2 38C2 33.2724 2.93117 28.5911 4.74034 24.2234C6.54952 19.8557 9.20126 15.887 12.5442 12.5441C15.8871 9.20123 19.8557 6.5495 24.2234 4.74033C28.5911 2.93116 33.2724 2 38 2L38 2Z" stroke="#2F2F2E" stroke-width="4" stroke-linecap="round" stroke-linejoin="round"/>
<path d="M38 2C45.6025 2 53.0098 4.40678 59.1603 8.87539C65.3108 13.344 69.8887 19.645 72.238 26.8754C74.5873 34.1058 74.5873 41.8943 72.238 49.1246C69.8887 56.355 65.3108 62.656 59.1603 67.1246" stroke="#158FFF" stroke-width="4" stroke-linecap="round" stroke-linejoin="round"/>
</svg>
